Coordinates
version=1
nRows=5
nColumns=46
inDegrees=yes

Units are S.I. units (second, meters, Newtons, ...)
Angles are in degrees.

endheader
time	pelvis_tilt	pelvis_list	pelvis_rotation	pelvis_tx	pelvis_ty	pelvis_tz	bb_angle	bb_tx	bb_ty	bb_tz	hip_flexion_r	hip_adduction_r	hip_rotation_r	knee_angle_r	knee_angle_r_beta	ankle_angle_r	subtalar_angle_r	mtp_angle_r	crank_angle_r	hip_flexion_l	hip_adduction_l	hip_rotation_l	knee_angle_l	knee_angle_l_beta	ankle_angle_l	subtalar_angle_l	mtp_angle_l	crank_angle_l	lumbar_extension	lumbar_bending	lumbar_rotation	arm_flex_r	arm_add_r	arm_rot_r	elbow_flex_r	pro_sup_r	wrist_flex_r	wrist_dev_r	arm_flex_l	arm_add_l	arm_rot_l	elbow_flex_l	pro_sup_l	wrist_flex_l	wrist_dev_l
      7.50000000	    -35.02059131	      5.71950291	     -5.27296102	      0.30692692	      1.03323561	     -0.21915213	      0.00000000	      0.50000000	      0.00000000	      0.25000000	     75.29027027	     -4.09054245	      6.33787030	     67.17133241	      1.17236091	     12.04664228	     -0.47813901	      0.00000000	      0.00000000	     56.49646571	     -5.22497011	     -4.05039750	     71.83473176	      1.25375259	    -36.79905880	     -7.48427621	      0.00000000	      0.00000000	    -34.61687768	     -8.85407243	      2.93662165	     43.50870068	    -26.14421024	     37.44967978	     75.12141344	     53.25734355	      0.00000000	      0.00000000	     42.05243723	    -19.97519425	     28.75677697	     75.06549346	     50.15020394	      0.00000000	      0.00000000
      7.50500000	    -35.13734172	      5.32853214	     -4.41064715	      0.30737059	      1.03256911	     -0.21918966	      0.00000000	      0.50000000	      0.00000000	      0.25000000	     73.11118319	     -4.48150125	      5.80883487	     63.89154199	      1.11511777	     11.32557517	     -1.90308126	      0.00000000	      0.00000000	     58.28525809	     -4.99827976	     -3.03215978	     74.37340456	      1.29806079	    -37.49359265	     -7.69862175	      0.00000000	      0.00000000	    -34.35340108	     -8.11040916	      2.38209636	     43.06732866	    -25.44320090	     36.60873695	     74.95157549	     53.13572796	      0.00000000	      0.00000000	     42.15893445	    -20.54427500	     29.40572296	     74.79028055	     50.18616728	      0.00000000	      0.00000000
      7.51000000	    -35.14380913	      4.95185148	     -3.58883510	      0.30806614	      1.03201397	     -0.21880098	      0.00000000	      0.50000000	      0.00000000	      0.25000000	     70.76234188	     -4.80268054	      5.30338795	     60.57181829	      1.05717766	     10.69841213	     -2.93396477	      0.00000000	      0.00000000	     59.84049632	     -4.72524892	     -2.04379371	     76.71620224	      1.33895032	    -38.00409214	     -7.84947825	      0.00000000	      0.00000000	    -34.16041912	     -7.48091789	      1.74249242	     42.24312574	    -23.72081773	     34.57478496	     73.97023276	     52.78061776	      0.00000000	      0.00000000	     42.50751399	    -21.75734526	     30.90609121	     74.72298768	     50.39012537	      0.00000000	      0.00000000
      7.51500000	    -35.05164851	      4.52857355	     -2.65861335	      0.30876768	      1.03122920	     -0.21895963	      0.00000000	      0.50000000	      0.00000000	      0.25000000	     68.30968315	     -5.24157062	      4.70706891	     57.32170457	      1.00045248	     10.18442830	     -3.58051484	      0.00000000	      0.00000000	     61.34681479	     -4.26063705	     -0.93617588	     79.10863716	      1.38070619	    -38.36553668	     -8.11261910	      0.00000000	      0.00000000	    -34.06669976	     -6.71334018	      1.12777410	     41.83847626	    -23.40145254	     34.39053110	     73.95265453	     52.75681037	      0.00000000	      0.00000000	     42.53550916	    -22.17611947	     31.09425097	     74.53233816	     50.38222787	      0.00000000	      0.00000000
      7.52000000	    -35.05557038	      4.18117115	     -1.82485920	      0.30927010	      1.03013069	     -0.21878873	      0.00000000	      0.50000000	      0.00000000	      0.25000000	     66.07395622	     -5.49894436	      4.29601753	     54.18425859	      0.94569372	      9.11818274	     -4.90267348	      0.00000000	      0.00000000	     62.94070065	     -3.83097745	      0.03566167	     81.44798079	      1.42153543	    -38.52423253	     -8.24422963	      0.00000000	      0.00000000	    -33.83007339	     -6.02289916	      0.31755258	     41.48558594	    -21.86476149	     33.13823061	     72.96922843	     52.48892250	      0.00000000	      0.00000000	     42.62601711	    -23.48716007	     32.21416184	     74.68628275	     50.57572898	      0.00000000	      0.00000000
